# Blender v2.82 (sub 7) OBJ File: 'canon.blend'
# www.blender.org
mtllib lwcomponents_cannon_barrel.mtl
o Canon
v 0.999994 -2.037148 -0.790288
v 0.999994 -0.938179 -2.111386
v 0.999994 -1.251549 1.868645
v 0.999994 -2.145818 0.243561
v 0.999994 -1.824579 1.232245
v 0.999994 -1.517369 -1.690576
v -0.837650 -1.110379 -1.986275
v -0.999994 -1.517369 -1.690576
v -0.999994 -0.938179 -2.111386
v -0.437400 -1.222309 -1.904956
v 0.000000 -1.344629 -1.816076
v 0.437400 -1.222309 -1.904956
v 0.837650 -1.110379 -1.986275
v -0.999994 -2.037148 -0.790289
v -0.999994 -2.145818 0.243560
v -0.999994 -1.824579 1.232244
v -0.000000 -1.538639 1.549804
v 0.089079 -1.516209 1.574724
v 0.947191 -1.300109 1.814725
v -0.089079 -1.516209 1.574724
v -0.947191 -1.300109 1.814724
v -0.999994 -1.251549 1.868644
v 1.673030 -0.625437 3.499885
v 1.414210 0.340481 4.396455
v 1.224740 -0.366620 4.396455
v 1.673030 1.306400 3.499885
v 1.931850 0.340481 3.499885
v -0.517635 0.340481 4.914094
v -0.448284 0.599299 4.914094
v -1.414210 0.340481 4.396455
v 1.673030 1.306400 2.464605
v 0.749998 1.639521 -5.027746
v 0.965919 2.013511 2.464605
v 1.299040 1.090479 -5.027746
v -0.000000 2.272331 2.464605
v 0.965919 -1.332548 3.499884
v -0.000000 -1.591369 2.464605
v 0.965919 -1.332548 2.464605
v -0.000000 -1.591369 3.499884
v -1.673030 -0.625437 3.499884
v -1.224740 -0.366620 4.396455
v -0.000000 -1.073729 4.396455
v 0.258818 -0.107803 4.914094
v -0.000000 -0.177154 4.914094
v -0.965919 2.013511 3.499884
v -0.000000 1.754691 4.396455
v -0.000000 2.272331 3.499884
v -1.299040 -0.409517 -5.027746
v -1.673030 -0.625437 2.464605
v -0.749998 -0.958559 -5.027746
v -0.965919 -1.332548 2.464605
v 1.500000 0.340481 -5.027746
v 1.931850 0.340481 2.464605
v 1.299040 -0.409517 -5.027746
v 1.224740 1.047583 4.396455
v -1.500000 0.340481 -5.027746
v -1.931850 0.340481 2.464605
v -1.299040 1.090479 -5.027746
v 0.965919 2.013511 3.499884
v -0.965919 2.013511 2.464605
v -0.749998 1.639521 -5.027746
v -0.258818 -0.107803 4.914094
v 0.448284 0.081663 4.914094
v -0.965919 -1.332548 3.499884
v -0.707102 -0.884259 4.396455
v 0.000000 1.840482 -5.027746
v -1.673030 1.306400 2.464605
v 0.448284 0.599299 4.914094
v 0.707102 1.565221 4.396455
v -1.673030 1.306400 3.499884
v -0.999994 0.340481 -5.027746
v -0.866022 0.840474 -5.027746
v -0.499992 1.206504 -5.027746
v 0.000000 1.340475 -5.027746
v 0.499992 1.206504 -5.027746
v 0.866022 0.840474 -5.027746
v 0.999994 0.340481 -5.027746
v -0.866022 -0.159511 -5.027746
v -0.499992 -0.525541 -5.027746
v 0.000000 -0.659513 -5.027746
v 0.000000 -1.159519 -5.027746
v 0.499992 -0.525541 -5.027746
v 0.749998 -0.958559 -5.027746
v 0.866022 -0.159511 -5.027746
v 0.258818 0.788765 4.914094
v -0.707102 1.565221 4.396455
v -1.224740 1.047583 4.396455
v -0.258818 0.788765 4.914094
v 0.707102 -0.884259 4.396455
v 1.673030 -0.625437 2.464605
v -0.448284 0.081663 4.914094
v -1.931850 0.340481 3.499884
v -0.000000 0.858117 4.914094
v 0.517635 0.340481 4.914094
v 0.499992 1.206504 -0.017755
v 0.000000 1.340475 -0.017755
v -0.866022 -0.159511 -0.017756
v -0.999994 0.340481 -0.017756
v 0.999994 0.340481 -0.017755
v 0.866022 -0.159511 -0.017755
v 0.000000 -0.659513 -0.017755
v 0.499992 -0.525541 -0.017755
v -0.866022 0.840474 -0.017756
v -0.499992 1.206504 -0.017756
v -0.499992 -0.525541 -0.017756
v 0.866022 0.840474 -0.017755
vt 0.898722 0.101473
vt 0.949058 0.000000
vt 0.949058 0.291647
vt 0.897343 0.177359
vt 0.917533 0.247935
vt 0.921432 0.033397
vt 0.644810 0.718620
vt 0.656466 0.688883
vt 0.656466 0.731202
vt 0.938458 0.774110
vt 0.917273 0.733004
vt 0.946494 0.744866
vt 0.929676 0.806070
vt 0.917273 0.879136
vt 0.938458 0.838029
vt 0.946494 0.867274
vt 0.958858 0.879136
vt 0.720513 0.816705
vt 0.809535 0.875496
vt 0.700708 0.883794
vt 0.829340 0.808407
vt 0.720513 0.741037
vt 0.829340 0.732739
vt 0.829340 0.985218
vt 0.900553 0.888939
vt 0.900554 1.000000
vt 0.829340 0.874157
vt 1.000000 0.879136
vt 0.979470 0.806070
vt 1.000000 0.733004
vt 0.977860 0.812578
vt 0.962344 0.875278
vt 0.958858 0.879136
vt 0.977860 0.799561
vt 0.962344 0.736862
vt 0.333921 0.730752
vt 0.330130 0.692431
vt 0.333921 0.688883
vt 0.900071 0.556676
vt 0.950406 0.658149
vt 0.922781 0.624752
vt 0.950406 0.366502
vt 0.898691 0.480790
vt 0.918881 0.410213
vt 0.255350 0.066011
vt 0.224399 0.000000
vt 0.267734 0.000231
vt 0.463512 0.067703
vt 0.499410 0.000000
vt 0.525690 0.066413
vt 0.258332 0.815437
vt 0.267951 0.798482
vt 0.303850 0.861759
vt 0.463512 0.143300
vt 0.399738 0.689322
vt 0.391714 0.143300
vt 0.455487 0.689322
vt 0.656641 0.142072
vt 0.718822 0.143213
vt 0.728112 0.689215
vt 0.196154 0.065695
vt 0.326930 0.066054
vt 0.391714 0.141456
vt 0.326930 0.141696
vt 0.391714 0.065814
vt 0.584886 0.622872
vt 0.597270 0.688652
vt 0.553935 0.688883
vt 0.442482 0.882141
vt 0.461064 0.811564
vt 0.474668 0.825408
vt 0.062178 0.621619
vt 0.026280 0.689322
vt 0.000000 0.622909
vt 0.595217 0.000034
vt 0.636204 0.213000
vt 0.584886 0.547230
vt 0.650796 0.000000
vt 0.653098 0.222127
vt 0.650827 0.503665
vt 0.656466 0.547187
vt 0.655974 0.499724
vt 0.219718 0.688604
vt 0.196154 0.141337
vt 0.265682 0.688849
vt 0.453892 0.000944
vt 0.174230 0.001002
vt 0.196154 0.547312
vt 0.125951 0.000000
vt 0.656466 0.066476
vt 0.682592 0.000000
vt 0.718647 0.067616
vt 0.062178 0.546022
vt 0.000000 0.547312
vt 0.070203 0.000000
vt 0.493250 0.830475
vt 0.405317 0.740987
vt 0.456085 0.792653
vt 0.391714 0.792653
vt 0.172450 0.755310
vt 0.129645 0.690784
vt 0.177048 0.689322
vt 0.525690 0.547546
vt 0.549254 0.000279
vt 0.679831 0.688329
vt 0.525690 0.142010
vt 0.503765 0.688320
vt 0.133976 0.546022
vt 0.493250 0.895984
vt 0.442482 0.703166
vt 0.474668 0.759899
vt 0.728112 0.000835
vt 0.021924 0.001002
vt 0.133976 0.621619
vt 0.571208 0.835015
vt 0.540118 0.853282
vt 0.525690 0.798482
vt 0.579538 0.893399
vt 0.561589 0.798483
vt 0.540119 0.743682
vt 0.571208 0.761949
vt 0.579538 0.703566
vt 0.597488 0.735205
vt 0.633386 0.725417
vt 0.633386 0.688883
vt 0.107696 0.908522
vt 0.071797 0.862198
vt 0.107697 0.871988
vt 0.053848 0.893838
vt 0.045518 0.835455
vt 0.597487 0.861759
vt 0.633386 0.908082
vt 0.633386 0.871549
vt 0.071798 0.735645
vt 0.107696 0.689322
vt 0.107696 0.725856
vt 0.053848 0.704005
vt 0.045519 0.762388
vt 0.014429 0.744121
vt 0.035899 0.798922
vt 0.000000 0.798922
vt 0.014428 0.853721
vt 0.303850 0.715627
vt 0.241672 0.752160
vt 0.258332 0.688883
vt 0.401333 0.000944
vt 0.391714 0.067703
vt 0.330130 0.761949
vt 0.330130 0.815437
vt 0.267951 0.778904
vt 0.071797 0.688378
vt 0.124357 0.688378
vt 0.649670 0.688620
vt 0.656466 0.622829
vt 0.405317 0.844319
vt 0.169874 0.689322
vt 0.306668 0.475883
vt 0.321261 0.688883
vt 0.255350 0.141653
vt 0.321291 0.185217
vt 0.323562 0.466756
vt 0.326439 0.189159
vt 0.320134 0.000263
vt 0.367559 0.000087
vt 0.493250 0.689322
vt 0.493250 0.754831
vt 0.383346 0.206474
vt 0.389253 0.208272
vt 0.350625 0.460717
vt 0.371562 0.688696
vt 0.380200 0.454116
vt 0.114908 0.899599
vt 0.110220 0.832906
vt 0.120752 0.897599
vt 0.391714 0.690986
vt 0.362403 0.918008
vt 0.341454 0.688883
vt 0.391714 0.925731
vt 0.205773 0.888503
vt 0.241672 0.825226
vt 0.258333 0.888503
vt 0.222434 0.825226
vt 0.196154 0.622909
vt 0.525690 0.623188
vt 0.107697 0.757308
vt 0.174974 0.830908
vt 0.258332 0.761949
vt 0.461064 0.773742
vt 0.205773 0.815437
vt 0.196154 0.798482
vt 0.196154 0.778904
vt 0.222434 0.752160
vt 0.205773 0.761949
vt 0.177048 0.878327
vt 0.335581 0.910942
vt 0.982592 0.366176
vt 0.949058 0.000000
vt 0.982592 0.000124
vt 0.949058 0.366052
vt 0.861526 0.366502
vt 0.829340 0.733004
vt 0.829340 0.367170
vt 0.861526 0.732336
vt 0.760297 0.000668
vt 0.728112 0.365834
vt 0.728112 0.000000
vt 0.760297 0.366502
vt 0.829648 0.365834
vt 0.797463 0.000668
vt 0.829648 0.000000
vt 0.797463 0.366502
vt 0.798698 0.366524
vt 0.761646 0.732553
vt 0.761646 0.366502
vt 0.798699 0.732576
vt 0.829340 0.366688
vt 0.829340 0.732739
vt 0.982592 0.733004
vt 0.950406 0.366502
vt 0.982592 0.367170
vt 0.950406 0.732336
vt 0.898691 0.366502
vt 0.898691 0.732336
vt 0.728112 0.366626
vt 0.728112 0.732678
vt 0.649940 0.784405
vt 0.668522 0.854981
vt 0.649940 0.822226
vt 0.668523 0.751650
vt 0.700708 0.873892
vt 0.700708 0.732739
vt 0.917273 0.874157
vt 0.880109 0.733004
vt 0.917273 0.733004
vt 0.880109 0.874156
vt 0.847923 0.751914
vt 0.847923 0.855245
vt 0.829340 0.784669
vt 0.829340 0.822491
vt 0.866701 0.000163
vt 0.829648 0.366237
vt 0.829648 0.000186
vt 0.866701 0.366215
vt 0.897343 0.000000
vt 0.897343 0.366052
vn 1.0000 0.0000 0.0000
vn -0.0000 -0.5878 -0.8090
vn 0.0000 -0.8660 -0.5000
vn 0.0000 -0.9945 -0.1045
vn -0.0000 -0.9511 0.3090
vn -0.0000 -0.7431 0.6691
vn -0.0000 -0.7432 0.6691
vn 0.0001 -0.7431 0.6691
vn -0.0001 -0.7431 0.6691
vn -1.0000 -0.0000 -0.0000
vn 0.8436 -0.2260 0.4871
vn 0.8436 0.2260 0.4871
vn -0.4956 0.1328 0.8584
vn 0.7060 0.7060 -0.0556
vn 0.2584 0.9644 -0.0556
vn 0.2588 -0.9659 0.0000
vn -0.8436 -0.2260 0.4871
vn 0.1328 -0.4956 0.8584
vn -0.2260 0.8436 0.4871
vn -0.7060 -0.7060 -0.0556
vn 0.9644 -0.2584 -0.0556
vn -0.9644 0.2584 -0.0556
vn 0.2260 0.8436 0.4871
vn -0.2584 0.9644 -0.0556
vn -0.1328 -0.4956 0.8584
vn 0.4956 -0.1328 0.8584
vn -0.2260 -0.8436 0.4871
vn -0.9644 -0.2584 -0.0556
vn 0.9644 0.2584 -0.0556
vn -0.7060 0.7060 -0.0556
vn 0.2588 0.9659 0.0000
vn 0.4956 0.1328 0.8584
vn -0.7071 0.7071 -0.0000
vn 0.9659 0.2588 0.0000
vn 0.0000 0.0000 -1.0000
vn -0.2588 0.9659 0.0000
vn 0.1328 0.4956 0.8584
vn 0.6176 0.6176 0.4871
vn -0.3628 0.3628 0.8584
vn -0.1328 0.4956 0.8584
vn -0.6176 0.6176 0.4871
vn -0.6176 -0.6176 0.4871
vn 0.3628 -0.3628 0.8584
vn -0.8436 0.2260 0.4871
vn 0.7060 -0.7060 -0.0556
vn 0.2260 -0.8436 0.4871
vn 0.9659 -0.2588 0.0000
vn 0.7071 0.7071 0.0000
vn 0.3628 0.3628 0.8584
vn 0.2584 -0.9644 -0.0556
vn -0.2584 -0.9644 -0.0556
vn -0.3628 -0.3628 0.8584
vn -0.4956 -0.1328 0.8584
vn -0.9659 0.2588 -0.0000
vn -0.9659 -0.2588 -0.0000
vn 0.7071 -0.7071 -0.0000
vn 0.6176 -0.6176 0.4871
vn -0.2588 -0.9659 -0.0000
vn 0.0000 0.0000 1.0000
vn -0.7071 -0.7071 0.0000
usemtl None
s off
f 1/1/1 2/2/1 3/3/1
f 4/4/1 3/3/1 5/5/1
f 2/2/1 1/1/1 6/6/1
f 3/3/1 4/4/1 1/1/1
f 7/7/2 8/8/2 9/9/2
f 10/10/2 8/11/2 7/12/2
f 11/13/2 8/11/2 10/10/2
f 11/13/2 6/14/2 8/11/2
f 12/15/2 6/14/2 11/13/2
f 13/16/2 6/14/2 12/15/2
f 6/14/2 13/16/2 2/17/2
f 1/18/3 8/19/3 6/20/3
f 8/19/3 1/18/3 14/21/3
f 4/22/4 14/21/4 1/18/4
f 14/21/4 4/22/4 15/23/4
f 5/24/5 15/25/5 4/26/5
f 15/25/5 5/24/5 16/27/5
f 5/28/6 17/29/6 16/30/6
f 5/28/7 18/31/7 17/29/7
f 5/28/6 19/32/6 18/31/6
f 19/32/8 5/28/8 3/33/8
f 20/34/7 16/30/7 17/29/7
f 21/35/6 16/30/6 20/34/6
f 16/36/9 21/37/9 22/38/9
f 14/39/10 9/40/10 8/41/10
f 9/40/10 14/39/10 22/42/10
f 15/43/10 22/42/10 14/39/10
f 22/42/10 15/43/10 16/44/10
f 23/45/11 24/46/11 25/47/11
f 26/48/12 24/49/12 27/50/12
f 28/51/13 29/52/13 30/53/13
f 31/54/14 32/55/14 33/56/14
f 32/55/14 31/54/14 34/57/14
f 35/58/15 33/59/15 32/60/15
f 27/61/11 24/46/11 23/45/11
f 36/62/16 37/63/16 38/64/16
f 37/63/16 36/62/16 39/65/16
f 40/66/17 41/67/17 30/68/17
f 42/69/18 43/70/18 44/71/18
f 45/72/19 46/73/19 47/74/19
f 48/75/20 9/76/20 49/77/20
f 50/78/20 9/76/20 48/75/20
f 9/76/20 50/78/20 7/79/20
f 22/80/20 49/77/20 9/76/20
f 22/80/20 51/81/20 49/77/20
f 51/81/20 22/80/20 21/82/20
f 52/83/21 53/84/21 54/85/21
f 55/86/12 24/49/12 26/48/12
f 56/87/22 57/88/22 58/89/22
f 47/90/23 46/91/23 59/92/23
f 60/93/24 35/94/24 61/95/24
f 42/69/25 44/71/25 62/96/25
f 24/97/26 63/98/26 25/99/26
f 64/100/27 42/101/27 65/102/27
f 48/75/28 57/103/28 56/104/28
f 66/105/15 35/58/15 32/60/15
f 34/57/29 53/106/29 52/107/29
f 60/93/30 58/89/30 67/108/30
f 58/89/30 60/93/30 61/95/30
f 47/90/31 33/59/31 35/58/31
f 33/59/31 47/90/31 59/92/31
f 42/69/25 62/96/25 65/109/25
f 55/110/32 68/111/32 24/97/32
f 46/91/23 69/112/23 59/92/23
f 61/95/24 35/94/24 66/113/24
f 67/108/33 45/72/33 60/93/33
f 45/72/33 67/108/33 70/114/33
f 27/50/34 31/54/34 26/48/34
f 31/54/34 27/50/34 53/106/34
f 31/54/29 53/106/29 34/57/29
f 71/115/35 56/116/35 58/117/35
f 56/116/35 71/115/35 48/118/35
f 58/117/35 72/119/35 71/115/35
f 61/120/35 72/119/35 58/117/35
f 61/120/35 73/121/35 72/119/35
f 66/122/35 73/121/35 61/120/35
f 66/122/35 74/123/35 73/121/35
f 66/122/35 75/124/35 74/123/35
f 32/125/35 75/124/35 66/122/35
f 32/126/35 76/127/35 75/128/35
f 34/129/35 76/127/35 32/126/35
f 76/127/35 34/129/35 77/130/35
f 78/131/35 48/118/35 71/115/35
f 78/131/35 50/132/35 48/118/35
f 79/133/35 50/132/35 78/131/35
f 80/134/35 50/135/35 79/136/35
f 80/134/35 81/137/35 50/135/35
f 82/138/35 81/137/35 80/134/35
f 82/138/35 83/139/35 81/137/35
f 84/140/35 83/139/35 82/138/35
f 54/141/35 84/140/35 77/130/35
f 52/142/35 77/130/35 34/129/35
f 84/140/35 54/141/35 83/139/35
f 77/130/35 52/142/35 54/141/35
f 45/72/36 35/94/36 60/93/36
f 35/94/36 45/72/36 47/74/36
f 46/143/37 85/144/37 69/145/37
f 69/146/38 26/48/38 59/147/38
f 26/48/38 69/146/38 55/86/38
f 29/52/39 86/148/39 87/149/39
f 86/148/39 29/52/39 88/150/39
f 86/148/40 88/150/40 46/143/40
f 86/151/19 46/73/19 45/72/19
f 70/114/41 86/151/41 45/72/41
f 86/151/41 70/114/41 87/152/41
f 40/66/42 65/153/42 41/67/42
f 65/153/42 40/66/42 64/154/42
f 89/155/43 63/98/43 43/70/43
f 63/98/43 89/155/43 25/99/43
f 30/53/13 29/52/13 87/149/13
f 30/156/44 87/152/44 70/114/44
f 54/85/45 2/157/45 83/158/45
f 90/159/45 2/157/45 54/85/45
f 2/157/45 90/159/45 3/160/45
f 83/158/45 2/157/45 13/161/45
f 3/160/45 38/64/45 19/162/45
f 38/64/45 3/160/45 90/159/45
f 36/62/46 89/163/46 42/164/46
f 54/85/21 53/84/21 90/159/21
f 23/45/47 53/84/47 27/61/47
f 53/84/47 23/45/47 90/159/47
f 26/48/48 33/56/48 59/147/48
f 33/56/48 26/48/48 31/54/48
f 68/111/49 69/165/49 85/166/49
f 69/165/49 68/111/49 55/110/49
f 18/167/50 37/63/50 17/168/50
f 12/169/50 81/170/50 83/158/50
f 81/170/50 12/169/50 11/171/50
f 17/172/51 37/173/51 20/174/51
f 81/175/51 10/176/51 50/177/51
f 10/176/51 81/175/51 11/178/51
f 65/179/52 91/180/52 41/181/52
f 91/180/52 65/179/52 62/182/52
f 30/53/53 91/180/53 28/51/53
f 92/183/44 30/156/44 70/114/44
f 37/63/50 19/162/50 38/64/50
f 19/162/50 37/63/50 18/167/50
f 13/161/50 12/169/50 83/158/50
f 89/155/18 43/70/18 42/69/18
f 41/181/53 91/180/53 30/53/53
f 57/88/54 70/114/54 67/108/54
f 70/114/54 57/88/54 92/183/54
f 57/88/22 67/108/22 58/89/22
f 49/77/55 92/184/55 57/103/55
f 92/184/55 49/77/55 40/66/55
f 40/66/17 30/68/17 92/184/17
f 36/62/56 90/159/56 23/45/56
f 90/159/56 36/62/56 38/64/56
f 89/163/57 23/45/57 25/47/57
f 23/45/57 89/163/57 36/62/57
f 39/185/58 51/186/58 37/173/58
f 51/186/58 39/185/58 64/100/58
f 93/187/37 85/144/37 46/143/37
f 68/111/32 94/188/32 24/97/32
f 88/150/40 93/187/40 46/143/40
f 48/75/28 49/77/28 57/103/28
f 36/62/46 42/164/46 39/65/46
f 39/185/27 42/101/27 64/100/27
f 91/180/59 29/52/59 28/51/59
f 62/182/59 29/52/59 91/180/59
f 62/182/59 88/150/59 29/52/59
f 44/189/59 88/150/59 62/182/59
f 44/189/59 93/187/59 88/150/59
f 43/190/59 93/187/59 44/189/59
f 43/190/59 85/144/59 93/187/59
f 63/191/59 85/144/59 43/190/59
f 63/191/59 68/192/59 85/144/59
f 68/192/59 63/191/59 94/193/59
f 24/97/26 94/188/26 63/98/26
f 51/81/60 40/66/60 49/77/60
f 40/66/60 51/81/60 64/154/60
f 37/173/51 21/194/51 20/174/51
f 21/194/51 37/173/51 51/186/51
f 50/177/51 10/176/51 7/195/51
f 95/196/58 74/197/58 75/198/58
f 74/197/58 95/196/58 96/199/58
f 97/200/34 71/201/34 98/202/34
f 71/201/34 97/200/34 78/203/34
f 84/204/54 99/205/54 77/206/54
f 99/205/54 84/204/54 100/207/54
f 101/208/36 82/209/36 80/210/36
f 82/209/36 101/208/36 102/211/36
f 103/212/56 73/213/56 104/214/56
f 73/213/56 103/212/56 72/215/56
f 98/216/47 72/215/47 103/212/47
f 72/215/47 98/216/47 71/217/47
f 105/218/31 80/219/31 79/220/31
f 80/219/31 105/218/31 101/221/31
f 105/222/48 78/203/48 97/200/48
f 78/203/48 105/222/48 79/223/48
f 96/224/16 73/213/16 74/225/16
f 73/213/16 96/224/16 104/214/16
f 82/209/33 100/207/33 84/204/33
f 100/207/33 82/209/33 102/211/33
f 103/226/35 97/227/35 98/228/35
f 104/229/35 97/227/35 103/226/35
f 104/229/35 105/230/35 97/227/35
f 96/231/35 105/230/35 104/229/35
f 96/232/35 101/233/35 105/234/35
f 95/235/35 101/233/35 96/232/35
f 95/235/35 102/236/35 101/233/35
f 106/237/35 102/236/35 95/235/35
f 106/237/35 100/238/35 102/236/35
f 100/238/35 106/237/35 99/239/35
f 76/240/60 95/241/60 75/242/60
f 95/241/60 76/240/60 106/243/60
f 77/244/55 106/243/55 76/240/55
f 106/243/55 77/244/55 99/245/55
